<svg width="32" height="24" viewBox="0 0 32 24" fill="none" xmlns="http://www.w3.org/2000/svg">
<path d="M17.3035 12.021C17.3035 15.4352 14.7224 18.203 11.5386 18.203C8.35475 18.203 5.77344 15.4352 5.77344 12.021C5.77344 8.60682 8.35456 5.83887 11.5386 5.83887C14.7226 5.83887 17.3035 8.60682 17.3035 12.021Z" fill="#29468A"/>
<path d="M23.6284 12.0212C23.6284 15.2349 22.3378 17.8412 20.7458 17.8412C19.1538 17.8412 17.8633 15.2349 17.8633 12.0212C17.8633 8.80746 19.1536 6.20117 20.7457 6.20117C22.3377 6.20117 23.6282 8.80662 23.6282 12.0212" fill="#29468A"/>
<path d="M26.2149 12.021C26.2149 14.8997 25.7611 17.2348 25.2011 17.2348C24.6411 17.2348 24.1875 14.9003 24.1875 12.021C24.1875 9.14161 24.6413 6.80713 25.2011 6.80713C25.7609 6.80713 26.2149 9.1414 26.2149 12.021Z" fill="#29468A"/>
</svg>
