<svg width="20" height="20" viewBox="0 0 20 20" fill="none" xmlns="http://www.w3.org/2000/svg">
<path d="M10 20C15.5228 20 20 15.5228 20 10C20 4.47715 15.5228 0 10 0C4.47715 0 0 4.47715 0 10C0 15.5228 4.47715 20 10 20Z" fill="#29468A"/>
<path d="M8.16536 14.5832C7.84136 14.5832 7.89645 14.4608 7.7847 14.1523L6.83203 11.0171L14.1654 6.6665" fill="#F5F5F5"/>
<path d="M8.16797 14.5836C8.41797 14.5836 8.52839 14.4693 8.66797 14.3336L10.0013 13.0371L8.33814 12.0342" fill="#F5F5F5"/>
<path d="M8.33628 12.0343L12.3663 15.0117C12.8262 15.2655 13.158 15.1341 13.2726 14.5848L14.913 6.85455C15.0809 6.18122 14.6564 5.87572 14.2164 6.07547L4.58387 9.78972C3.92637 10.0535 3.93028 10.4203 4.46403 10.5837L6.93595 11.3553L12.6587 7.74489C12.9289 7.58105 13.1769 7.66905 12.9734 7.84972" fill="white"/>
</svg>
